<svg width="20" height="17" viewBox="0 0 20 17" fill="none" xmlns="http://www.w3.org/2000/svg">
<path d="M20 13.598V11.7881C19.9965 11.4079 19.8692 11.0396 19.6381 10.7411C19.407 10.4426 19.0853 10.2308 18.7233 10.1389C18.371 10.0406 18.0601 9.82687 17.8385 9.53073C17.6168 9.23459 17.4968 8.87241 17.4968 8.49991C17.4968 8.12742 17.6168 7.76524 17.8385 7.4691C18.0601 7.17296 18.371 6.95926 18.7233 6.86089C19.0853 6.76904 19.407 6.55724 19.6381 6.25874C19.8692 5.96023 19.9965 5.59194 20 5.21168V3.40187C20 2.72583 19.7366 2.07748 19.2678 1.59945C18.7989 1.12141 18.163 0.852855 17.5 0.852855H14.1667V4.25155C14.1667 4.4769 14.0789 4.69301 13.9226 4.85236C13.7663 5.0117 13.5543 5.10122 13.3333 5.10122C13.1123 5.10122 12.9004 5.0117 12.7441 4.85236C12.5878 4.69301 12.5 4.4769 12.5 4.25155V0.852855H4.16667C3.062 0.854204 2.00296 1.30223 1.22185 2.09866C0.440735 2.89509 0.00132321 3.9749 0 5.10122L0 5.21168C0.00354318 5.59194 0.130844 5.96023 0.361916 6.25874C0.592988 6.55724 0.914744 6.76904 1.27667 6.86089C1.62903 6.95926 1.93994 7.17296 2.16155 7.4691C2.38316 7.76524 2.5032 8.12742 2.5032 8.49991C2.5032 8.87241 2.38316 9.23459 2.16155 9.53073C1.93994 9.82687 1.62903 10.0406 1.27667 10.1389C0.914744 10.2308 0.592988 10.4426 0.361916 10.7411C0.130844 11.0396 0.00354318 11.4079 0 11.7881L0 11.8986C0.00132321 13.0249 0.440735 14.1047 1.22185 14.9012C2.00296 15.6976 3.062 16.1456 4.16667 16.147H12.5V12.7483C12.5 12.5229 12.5878 12.3068 12.7441 12.1475C12.9004 11.9881 13.1123 11.8986 13.3333 11.8986C13.5543 11.8986 13.7663 11.9881 13.9226 12.1475C14.0789 12.3068 14.1667 12.5229 14.1667 12.7483V16.147H17.5C18.163 16.147 18.7989 15.8784 19.2678 15.4004C19.7366 14.9223 20 14.274 20 13.598ZM12.5 9.34959V7.65024C12.5 7.42489 12.5878 7.20878 12.7441 7.04943C12.9004 6.89009 13.1123 6.80057 13.3333 6.80057C13.5543 6.80057 13.7663 6.89009 13.9226 7.04943C14.0789 7.20878 14.1667 7.42489 14.1667 7.65024V9.34959C14.1667 9.57493 14.0789 9.79105 13.9226 9.9504C13.7663 10.1097 13.5543 10.1993 13.3333 10.1993C13.1123 10.1993 12.9004 10.1097 12.7441 9.9504C12.5878 9.79105 12.5 9.57493 12.5 9.34959Z" fill="white"/>
</svg>
