<svg width="16" height="16" viewBox="0 0 16 16" fill="none" xmlns="http://www.w3.org/2000/svg">
<path d="M7.99991 15.141L7.42258 14.733C6.66258 14.1957 -9.02991e-05 9.35501 -9.02991e-05 4.93301C-0.0431968 3.694 0.405955 2.48832 1.24919 1.5795C2.09242 0.670686 3.26115 0.132652 4.49991 0.0830078C5.18368 0.0897276 5.85639 0.256451 6.46416 0.569829C7.07193 0.883207 7.59788 1.33453 7.99991 1.88767C8.40194 1.33453 8.92789 0.883207 9.53566 0.569829C10.1434 0.256451 10.8161 0.0897276 11.4999 0.0830078C12.7387 0.132652 13.9074 0.670686 14.7506 1.5795C15.5939 2.48832 16.043 3.694 15.9999 4.93301C15.9999 9.35501 9.33724 14.1957 8.57724 14.733L7.99991 15.141ZM4.49991 2.08301C3.79189 2.13317 3.13223 2.4606 2.66416 2.9942C2.1961 3.52779 1.9574 4.22448 1.99991 4.93301C1.99991 7.54368 5.90858 11.073 7.99991 12.6737C10.0912 11.0737 13.9999 7.54368 13.9999 4.93301C14.0424 4.22448 13.8037 3.52779 13.3357 2.9942C12.8676 2.4606 12.2079 2.13317 11.4999 2.08301C10.7919 2.13317 10.1322 2.4606 9.66417 2.9942C9.1961 3.52779 8.95741 4.22448 8.99991 4.93301H6.99991C7.04242 4.22448 6.80372 3.52779 6.33566 2.9942C5.86759 2.4606 5.20793 2.13317 4.49991 2.08301V2.08301Z" fill="white"/>
</svg>
