<svg width="14" height="16" viewBox="0 0 14 16" fill="none" xmlns="http://www.w3.org/2000/svg">
<path d="M6.62069 0C4.86548 0.00194072 3.1827 0.703516 1.94152 1.95082C0.700339 3.19812 0.00210688 4.88929 0 6.65332C0 8.36665 1.32003 11.048 3.92359 14.6226C4.23354 15.0494 4.63936 15.3966 5.10803 15.6359C5.57671 15.8753 6.09498 16 6.62069 16C7.14639 16 7.66467 15.8753 8.13334 15.6359C8.60202 15.3966 9.00784 15.0494 9.31779 14.6226C11.9214 11.048 13.2414 8.36665 13.2414 6.65332C13.2393 4.88929 12.541 3.19812 11.2999 1.95082C10.0587 0.703516 8.3759 0.00194072 6.62069 0ZM6.62069 9.30532C6.09591 9.30532 5.58292 9.14892 5.14659 8.85591C4.71025 8.56289 4.37017 8.14641 4.16934 7.65914C3.96852 7.17188 3.91598 6.6357 4.01835 6.11842C4.12073 5.60113 4.37344 5.12598 4.74451 4.75304C5.11558 4.3801 5.58836 4.12613 6.10305 4.02323C6.61775 3.92034 7.15124 3.97315 7.63607 4.17498C8.1209 4.37682 8.53529 4.71861 8.82684 5.15714C9.11839 5.59567 9.27401 6.11124 9.27401 6.63866C9.27401 7.3459 8.99446 8.02418 8.49687 8.52427C7.99927 9.02437 7.32439 9.30532 6.62069 9.30532Z" fill="#591BFF"/>
</svg>
