<svg width="28" height="28" viewBox="0 0 28 28" fill="none" xmlns="http://www.w3.org/2000/svg">
<g clip-path="url(#clip0_1_89)">
<path d="M8.16682 28.0008C9.45549 28.0008 10.5002 26.9561 10.5002 25.6674C10.5002 24.3788 9.45549 23.3341 8.16682 23.3341C6.87816 23.3341 5.8335 24.3788 5.8335 25.6674C5.8335 26.9561 6.87816 28.0008 8.16682 28.0008Z" fill="white"/>
<path d="M19.8333 28.0008C21.122 28.0008 22.1667 26.9561 22.1667 25.6674C22.1667 24.3788 21.122 23.3341 19.8333 23.3341C18.5447 23.3341 17.5 24.3788 17.5 25.6674C17.5 26.9561 18.5447 28.0008 19.8333 28.0008Z" fill="white"/>
<path d="M26.6152 11.1802C25.5526 12.6236 23.9768 13.6044 22.2126 13.9205C20.4484 14.2367 18.6301 13.864 17.1324 12.8794C15.6348 11.8948 14.5719 10.3732 14.1627 8.62819C13.7536 6.88317 14.0294 5.0477 14.9333 3.5H4.949L4.9 3.08933C4.79946 2.23837 4.39024 1.45385 3.74989 0.884455C3.10953 0.315063 2.28255 0.000364976 1.42567 0L0 0V2.33333H1.42567C1.71142 2.33337 1.98723 2.43828 2.20077 2.62817C2.41431 2.81805 2.55073 3.07971 2.58417 3.3635L4.43333 19.0762C4.53361 19.9273 4.94272 20.7121 5.5831 21.2818C6.22347 21.8514 7.0506 22.1663 7.90767 22.1667H23.3333V19.8333H7.90767C7.62173 19.8333 7.34578 19.7282 7.13221 19.5381C6.91864 19.3479 6.78233 19.086 6.74917 18.802L6.59633 17.5H25.4753L26.6152 11.1802Z" fill="white"/>
</g>
<circle cx="21" cy="7" r="6" fill="white"/>
<path d="M20.6222 10.0795C20.1979 10.0795 19.8201 10.0066 19.4886 9.8608C19.1591 9.71307 18.8987 9.51042 18.7074 9.25284C18.518 8.99337 18.4205 8.69413 18.4148 8.35511H19.6534C19.661 8.49716 19.7074 8.62216 19.7926 8.73011C19.8797 8.83617 19.9953 8.91856 20.1392 8.97727C20.2831 9.03598 20.4451 9.06534 20.625 9.06534C20.8125 9.06534 20.9782 9.0322 21.1222 8.96591C21.2661 8.89962 21.3788 8.80777 21.4602 8.69034C21.5417 8.57292 21.5824 8.4375 21.5824 8.28409C21.5824 8.12879 21.5388 7.99148 21.4517 7.87216C21.3665 7.75095 21.2434 7.65625 21.0824 7.58807C20.9233 7.51989 20.7339 7.4858 20.5142 7.4858H19.9716V6.58239H20.5142C20.6998 6.58239 20.8636 6.55019 21.0057 6.4858C21.1496 6.4214 21.2614 6.33239 21.3409 6.21875C21.4205 6.10322 21.4602 5.96875 21.4602 5.81534C21.4602 5.66951 21.4252 5.54167 21.3551 5.43182C21.2869 5.32008 21.1903 5.23295 21.0653 5.17045C20.9422 5.10795 20.7983 5.0767 20.6335 5.0767C20.4669 5.0767 20.3144 5.10701 20.1761 5.16761C20.0379 5.22633 19.9271 5.31061 19.8438 5.42045C19.7604 5.5303 19.7159 5.65909 19.7102 5.80682H18.5312C18.5369 5.47159 18.6326 5.17614 18.8182 4.92045C19.0038 4.66477 19.2538 4.46496 19.5682 4.32102C19.8845 4.17519 20.2415 4.10227 20.6392 4.10227C21.0407 4.10227 21.392 4.17519 21.6932 4.32102C21.9943 4.46686 22.2282 4.66383 22.3949 4.91193C22.5634 5.15814 22.6468 5.43466 22.6449 5.74148C22.6468 6.06723 22.5455 6.33902 22.3409 6.55682C22.1383 6.77462 21.8741 6.91288 21.5483 6.97159V7.01705C21.9763 7.07197 22.3021 7.22064 22.5256 7.46307C22.7509 7.7036 22.8627 8.00473 22.8608 8.36648C22.8627 8.69792 22.767 8.99242 22.5739 9.25C22.3826 9.50758 22.1184 9.71023 21.7812 9.85795C21.4441 10.0057 21.0578 10.0795 20.6222 10.0795Z" fill="#591BFF"/>
<defs>
<clipPath id="clip0_1_89">
<rect width="28" height="28" fill="white"/>
</clipPath>
</defs>
</svg>
